{
  "accessors": [
    {
      "bufferView": 2,
      "componentType": 5126,
      "count": 65532,
      "max": [
        0.08657114207744598,
        0.37986883521080017,
        0.053974397480487823
      ],
      "min": [
        -0.0686633288860321,
        0.09813487529754639,
        -0.09286101907491684
      ],
      "type": "VEC3"
    },
    {
      "bufferView": 2,
      "byteOffset": 786384,
      "componentType": 5126,
      "count": 65532,
      "max": [
        0.9999989867210388,
        0.9999992847442627,
        0.9999805092811584
      ],
      "min": [
        -0.999988853931427,
        -0.9997677803039551,
        -0.9999988675117493
      ],
      "type": "VEC3"
    },
    {
      "bufferView": 1,
      "componentType": 5126,
      "count": 65532,
      "max": [
        0.9993799924850464,
        0.9997302293777466
      ],
      "min": [
        0.020644983276724815,
        0.01196300983428955
      ],
      "type": "VEC2"
    },
    {
      "bufferView": 0,
      "componentType": 5125,
      "count": 347232,
      "type": "SCALAR"
    },
    {
      "bufferView": 2,
      "byteOffset": 1572768,
      "componentType": 5126,
      "count": 65532,
      "max": [
        0.08671725541353226,
        0.3778090178966522,
        0.08032285422086716
      ],
      "min": [
        -0.09103382378816605,
        -0.019228514283895493,
        -0.09252907335758209
      ],
      "type": "VEC3"
    },
    {
      "bufferView": 2,
      "byteOffset": 2359152,
      "componentType": 5126,
      "count": 65532,
      "max": [
        0.9999955892562866,
        0.9999971985816956,
        0.999448835849762
      ],
      "min": [
        -0.9999977946281433,
        -0.9995372891426086,
        -0.9999969005584717
      ],
      "type": "VEC3"
    },
    {
      "bufferView": 1,
      "byteOffset": 524256,
      "componentType": 5126,
      "count": 65532,
      "max": [
        0.9995564818382263,
        0.9997529983520508
      ],
      "min": [
        0.000244140625,
        0.006103634834289551
      ],
      "type": "VEC2"
    },
    {
      "bufferView": 0,
      "byteOffset": 1388928,
      "componentType": 5125,
      "count": 325623,
      "type": "SCALAR"
    },
    {
      "bufferView": 2,
      "byteOffset": 3145536,
      "componentType": 5126,
      "count": 65532,
      "max": [
        0.08654329180717468,
        0.3748762309551239,
        0.08195114135742188
      ],
      "min": [
        -0.08565205335617065,
        -0.019228514283895493,
        -0.09190584719181061
      ],
      "type": "VEC3"
    },
    {
      "bufferView": 2,
      "byteOffset": 3931920,
      "componentType": 5126,
      "count": 65532,
      "max": [
        0.9999955892562866,
        0.9999971985816956,
        0.9999971389770508
      ],
      "min": [
        -0.9999991655349731,
        -0.9994633793830872,
        -0.9999727606773376
      ],
      "type": "VEC3"
    },
    {
      "bufferView": 1,
      "byteOffset": 1048512,
      "componentType": 5126,
      "count": 65532,
      "max": [
        0.9996729493141174,
        0.9997364282608032
      ],
      "min": [
        0.000244140625,
        0.01489269733428955
      ],
      "type": "VEC2"
    },
    {
      "bufferView": 0,
      "byteOffset": 2691420,
      "componentType": 5125,
      "count": 327573,
      "type": "SCALAR"
    },
    {
      "bufferView": 2,
      "byteOffset": 4718304,
      "componentType": 5126,
      "count": 58417,
      "max": [
        0.08649922162294388,
        0.37986883521080017,
        0.08185023069381714
      ],
      "min": [
        -0.09203360974788666,
        -0.019228514283895493,
        -0.092043437063694
      ],
      "type": "VEC3"
    },
    {
      "bufferView": 2,
      "byteOffset": 5419308,
      "componentType": 5126,
      "count": 58417,
      "max": [
        0.9999922513961792,
        0.9999908208847046,
        0.9999975562095642
      ],
      "min": [
        -0.9999976754188538,
        -0.9994633793830872,
        -0.9999662637710571
      ],
      "type": "VEC3"
    },
    {
      "bufferView": 1,
      "byteOffset": 1572768,
      "componentType": 5126,
      "count": 58417,
      "max": [
        0.998943030834198,
        0.9997348189353943
      ],
      "min": [
        0.0012207030085846782,
        0.0012208223342895508
      ],
      "type": "VEC2"
    },
    {
      "bufferView": 0,
      "byteOffset": 4001712,
      "componentType": 5125,
      "count": 263202,
      "type": "SCALAR"
    }
  ],
  "asset": {
    "extras": {
      "author": "geckoguyrc (https://sketchfab.com/geckoguyrc)",
      "license": "CC-BY-4.0 (http://creativecommons.org/licenses/by/4.0/)",
      "source": "https://sketchfab.com/3d-models/monster-pacific-punch-juice-69bae26d805c4cf5bae4759e48dc816c",
      "title": "Monster Pacific Punch Juice"
    },
    "generator": "Sketchfab-16.74.0",
    "version": "2.0"
  },
  "bufferViews": [
    {
      "buffer": 0,
      "byteLength": 5054520,
      "name": "floatBufferViews",
      "target": 34963
    },
    {
      "buffer": 0,
      "byteLength": 2040104,
      "byteOffset": 5054520,
      "byteStride": 8,
      "name": "floatBufferViews",
      "target": 34962
    },
    {
      "buffer": 0,
      "byteLength": 6120312,
      "byteOffset": 7094624,
      "byteStride": 12,
      "name": "floatBufferViews",
      "target": 34962
    }
  ],
  "buffers": [
    {
      "byteLength": 13214936,
      "uri": "scene.bin"
    }
  ],
  "extensionsUsed": [
    "KHR_materials_unlit"
  ],
  "images": [
    {
      "uri": "textures/default_tex0_baseColor.jpeg"
    }
  ],
  "materials": [
    {
      "extensions": {
        "KHR_materials_unlit": {}
      },
      "name": "default_tex0",
      "pbrMetallicRoughness": {
        "baseColorTexture": {
          "index": 0
        },
        "metallicFactor": 0.0
      }
    }
  ],
  "meshes": [
    {
      "name": "Object_0",
      "primitives": [
        {
          "attributes": {
            "NORMAL": 1,
            "POSITION": 0,
            "TEXCOORD_0": 2
          },
          "indices": 3,
          "material": 0,
          "mode": 4
        }
      ]
    },
    {
      "name": "Object_1",
      "primitives": [
        {
          "attributes": {
            "NORMAL": 5,
            "POSITION": 4,
            "TEXCOORD_0": 6
          },
          "indices": 7,
          "material": 0,
          "mode": 4
        }
      ]
    },
    {
      "name": "Object_2",
      "primitives": [
        {
          "attributes": {
            "NORMAL": 9,
            "POSITION": 8,
            "TEXCOORD_0": 10
          },
          "indices": 11,
          "material": 0,
          "mode": 4
        }
      ]
    },
    {
      "name": "Object_3",
      "primitives": [
        {
          "attributes": {
            "NORMAL": 13,
            "POSITION": 12,
            "TEXCOORD_0": 14
          },
          "indices": 15,
          "material": 0,
          "mode": 4
        }
      ]
    }
  ],
  "nodes": [
    {
      "children": [
        1
      ],
      "matrix": [
        1.0,
        0.0,
        0.0,
        0.0,
        0.0,
        2.220446049250313e-16,
        -1.0,
        0.0,
        0.0,
        1.0,
        2.220446049250313e-16,
        0.0,
        0.0,
        0.0,
        0.0,
        1.0
      ],
      "name": "Sketchfab_model"
    },
    {
      "children": [
        2
      ],
      "name": "root"
    },
    {
      "children": [
        3
      ],
      "matrix": [
        1.0,
        0.0,
        0.0,
        0.0,
        0.0,
        2.220446049250313e-16,
        1.0,
        0.0,
        0.0,
        -1.0,
        2.220446049250313e-16,
        0.0,
        0.0,
        0.0,
        0.0,
        1.0
      ],
      "name": "GLTF_SceneRootNode"
    },
    {
      "children": [
        4,
        5,
        6,
        7
      ],
      "name": "_0"
    },
    {
      "mesh": 0,
      "name": "Object_4"
    },
    {
      "mesh": 1,
      "name": "Object_5"
    },
    {
      "mesh": 2,
      "name": "Object_6"
    },
    {
      "mesh": 3,
      "name": "Object_7"
    }
  ],
  "samplers": [
    {
      "magFilter": 9729,
      "minFilter": 9729,
      "wrapS": 33071,
      "wrapT": 33071
    }
  ],
  "scene": 0,
  "scenes": [
    {
      "name": "Sketchfab_Scene",
      "nodes": [
        0
      ]
    }
  ],
  "textures": [
    {
      "sampler": 0,
      "source": 0
    }
  ]
}
